<svg width="30" height="31" viewBox="0 0 30 31" fill="none" xmlns="http://www.w3.org/2000/svg">
<path d="M27.0901 5.54663H2.9101C1.89469 5.54663 1.07153 6.36979 1.07153 7.3852V23.9966C1.07153 25.012 1.89469 25.8352 2.9101 25.8352H27.0901C28.1055 25.8352 28.9287 25.012 28.9287 23.9966V7.3852C28.9287 6.36979 28.1055 5.54663 27.0901 5.54663Z" stroke="white" stroke-width="2.14286" stroke-linecap="round" stroke-linejoin="round"/>
<path d="M20.0559 13.2896H24.3134" stroke="white" stroke-width="2.14286" stroke-linecap="round" stroke-linejoin="round"/>
<path d="M20.0559 17.5092H24.3134" stroke="white" stroke-width="2.14286" stroke-linecap="round" stroke-linejoin="round"/>
<path d="M7.51562 13.9931C7.51562 15.935 9.08979 17.5091 11.0316 17.5091C11.5225 17.5091 11.9899 17.4085 12.4143 17.2268C13.6688 16.6897 14.5476 15.4441 14.5476 13.9931C14.5476 12.0513 12.9735 10.4771 11.0316 10.4771C9.08979 10.4771 7.51562 12.0513 7.51562 13.9931Z" stroke="white" stroke-width="2.14286" stroke-linecap="round" stroke-linejoin="round"/>
<path d="M5.68677 20.9908C6.24545 19.9282 7.03066 19.0499 7.9669 18.4405C8.90313 17.8311 9.95892 17.511 11.0327 17.511C12.1066 17.511 13.1624 17.8311 14.0986 18.4405C15.0349 19.0499 15.8201 19.9282 16.3787 20.9908" stroke="white" stroke-width="2.14286" stroke-linecap="round" stroke-linejoin="round"/>
</svg>
