<svg width="30" height="31" viewBox="0 0 30 31" fill="none" xmlns="http://www.w3.org/2000/svg">
<rect x="7.49976" y="8.19142" width="15" height="15" fill="#1C1C1C"/>
<path fill-rule="evenodd" clip-rule="evenodd" d="M8.00065 3.41896C9.2064 3.32274 10.3511 2.8486 11.2717 2.06405C13.4201 0.233208 16.5799 0.233208 18.7283 2.06405C19.6489 2.8486 20.7936 3.32274 21.9993 3.41896C24.8131 3.6435 27.0474 5.87783 27.272 8.69157C27.3682 9.89732 27.8423 11.042 28.6269 11.9626C30.4577 14.111 30.4577 17.2708 28.6269 19.4192C27.8423 20.3398 27.3682 21.4845 27.272 22.6903C27.0474 25.504 24.8131 27.7383 21.9993 27.9629C20.7936 28.0591 19.6489 28.5332 18.7283 29.3178C16.5799 31.1486 13.4201 31.1486 11.2717 29.3178C10.3511 28.5332 9.2064 28.0591 8.00065 27.9629C5.18692 27.7383 2.95258 25.504 2.72804 22.6903C2.63182 21.4845 2.15769 20.3398 1.37313 19.4192C-0.45771 17.2708 -0.45771 14.111 1.37313 11.9626C2.15769 11.042 2.63182 9.89732 2.72804 8.69157C2.95258 5.87783 5.18692 3.6435 8.00065 3.41896ZM21.9508 13.2667C22.6831 12.5345 22.6831 11.3473 21.9508 10.6151C21.2186 9.88286 20.0314 9.88286 19.2992 10.6151L13.125 16.7893L10.7008 14.3651C9.96859 13.6329 8.78141 13.6329 8.04918 14.3651C7.31694 15.0973 7.31694 16.2845 8.04918 17.0167L11.7992 20.7667C12.5314 21.499 13.7186 21.499 14.4508 20.7667L21.9508 13.2667Z" fill="white"/>
</svg>
