<svg width="24" height="25" viewBox="0 0 24 25" fill="none" xmlns="http://www.w3.org/2000/svg">
<path d="M12 15.7659C11.8667 15.7659 11.7417 15.7453 11.625 15.7039C11.5083 15.6626 11.4 15.5916 11.3 15.4909L7.7 11.8909C7.5 11.6909 7.404 11.4576 7.412 11.1909C7.42 10.9243 7.516 10.6909 7.7 10.4909C7.9 10.2909 8.13767 10.1869 8.413 10.1789C8.68833 10.1709 8.92567 10.2666 9.125 10.4659L11 12.3409V5.19092C11 4.90759 11.096 4.67025 11.288 4.47892C11.48 4.28759 11.7173 4.19159 12 4.19092C12.2827 4.19025 12.5203 4.28625 12.713 4.47892C12.9057 4.67159 13.0013 4.90892 13 5.19092V12.3409L14.875 10.4659C15.075 10.2659 15.3127 10.1699 15.588 10.1779C15.8633 10.1859 16.1007 10.2903 16.3 10.4909C16.4833 10.6909 16.5793 10.9243 16.588 11.1909C16.5967 11.4576 16.5007 11.6909 16.3 11.8909L12.7 15.4909C12.6 15.5909 12.4917 15.6619 12.375 15.7039C12.2583 15.7459 12.1333 15.7666 12 15.7659ZM6 20.1909C5.45 20.1909 4.97933 19.9953 4.588 19.6039C4.19667 19.2126 4.00067 18.7416 4 18.1909V16.1909C4 15.9076 4.096 15.6703 4.288 15.4789C4.48 15.2876 4.71733 15.1916 5 15.1909C5.28267 15.1903 5.52033 15.2863 5.713 15.4789C5.90567 15.6716 6.00133 15.9089 6 16.1909V18.1909H18V16.1909C18 15.9076 18.096 15.6703 18.288 15.4789C18.48 15.2876 18.7173 15.1916 19 15.1909C19.2827 15.1903 19.5203 15.2863 19.713 15.4789C19.9057 15.6716 20.0013 15.9089 20 16.1909V18.1909C20 18.7409 19.8043 19.2119 19.413 19.6039C19.0217 19.9959 18.5507 20.1916 18 20.1909H6Z" fill="white"/>
</svg>
