<svg width="30" height="31" viewBox="0 0 30 31" fill="none" xmlns="http://www.w3.org/2000/svg">
<path d="M13.75 5.69092H5C4.33696 5.69092 3.70107 5.95431 3.23223 6.42315C2.76339 6.89199 2.5 7.52788 2.5 8.19092V25.6909C2.5 26.354 2.76339 26.9898 3.23223 27.4587C3.70107 27.9275 4.33696 28.1909 5 28.1909H22.5C23.163 28.1909 23.7989 27.9275 24.2678 27.4587C24.7366 26.9898 25 26.354 25 25.6909V16.9409" stroke="white" stroke-width="2.5" stroke-linecap="round" stroke-linejoin="round"/>
<path d="M23.125 3.8159C23.6223 3.31862 24.2967 3.03925 25 3.03925C25.7033 3.03925 26.3777 3.31862 26.875 3.8159C27.3723 4.31318 27.6517 4.98763 27.6517 5.6909C27.6517 6.39416 27.3723 7.06861 26.875 7.5659L15 19.4409L10 20.6909L11.25 15.6909L23.125 3.8159Z" stroke="white" stroke-width="2.5" stroke-linecap="round" stroke-linejoin="round"/>
</svg>
