<svg viewBox="0 0 30 31" fill="none" xmlns="http://www.w3.org/2000/svg">
<path d="M12.5 16.9409C13.0368 17.6586 13.7217 18.2524 14.5082 18.6821C15.2947 19.1118 16.1644 19.3673 17.0583 19.4314C17.9522 19.4954 18.8495 19.3664 19.6892 19.0532C20.5289 18.7399 21.2914 18.2498 21.925 17.6159L25.675 13.8659C26.8135 12.6872 27.4435 11.1084 27.4292 9.46968C27.415 7.83095 26.7577 6.26337 25.5989 5.10457C24.4401 3.94577 22.8725 3.28846 21.2338 3.27422C19.595 3.25998 18.0163 3.88995 16.8375 5.02844L14.6875 7.16594" stroke="white" stroke-width="2.5" stroke-linecap="round" stroke-linejoin="round"/>
<path d="M17.5 14.4409C16.9632 13.7232 16.2783 13.1294 15.4918 12.6997C14.7053 12.27 13.8356 12.0145 12.9417 11.9505C12.0478 11.8865 11.1505 12.0154 10.3108 12.3287C9.47113 12.6419 8.70861 13.1321 8.07501 13.7659L4.32501 17.5159C3.18652 18.6947 2.55655 20.2734 2.57079 21.9122C2.58503 23.5509 3.24234 25.1185 4.40114 26.2773C5.55994 27.4361 7.12752 28.0934 8.76625 28.1076C10.405 28.1218 11.9837 27.4919 13.1625 26.3534L15.3 24.2159" stroke="white" stroke-width="2.5" stroke-linecap="round" stroke-linejoin="round"/>
</svg>
