<svg width="30" height="31" viewBox="0 0 30 31" fill="none" xmlns="http://www.w3.org/2000/svg">
<g clip-path="url(#clip0_1140_6792)">
<path d="M18.2144 11.4052C19.3978 11.4052 20.3572 10.4458 20.3572 9.26236C20.3572 8.07891 19.3978 7.11951 18.2144 7.11951C17.0309 7.11951 16.0715 8.07891 16.0715 9.26236C16.0715 10.4458 17.0309 11.4052 18.2144 11.4052Z" stroke="white" stroke-width="2.14286" stroke-linecap="round" stroke-linejoin="round"/>
<path d="M9.64296 22.1195C10.2347 22.1195 10.7144 21.6398 10.7144 21.0481C10.7144 20.4564 10.2347 19.9767 9.64296 19.9767C9.05123 19.9767 8.57153 20.4564 8.57153 21.0481C8.57153 21.6398 9.05123 22.1195 9.64296 22.1195Z" stroke="white" stroke-width="2.14286" stroke-linecap="round" stroke-linejoin="round"/>
<path d="M9.64286 14.6195C10.8263 14.6195 11.7857 13.6601 11.7857 12.4766C11.7857 11.2932 10.8263 10.3338 9.64286 10.3338C8.4594 10.3338 7.5 11.2932 7.5 12.4766C7.5 13.6601 8.4594 14.6195 9.64286 14.6195Z" stroke="white" stroke-width="2.14286" stroke-linecap="round" stroke-linejoin="round"/>
<path d="M20.4001 27.0052C20.3762 26.5895 20.2317 26.1898 19.9844 25.8549C19.737 25.5202 19.3975 25.2646 19.0072 25.1195C18.038 24.8008 17.2142 24.1471 16.684 23.2756C16.1537 22.4038 15.9518 21.3718 16.1145 20.3646C16.2772 19.3575 16.7938 18.4414 17.5715 17.7811C18.3493 17.1208 19.337 16.7595 20.3572 16.7623H24.3643C25.0515 16.7643 25.7293 16.6009 26.3402 16.2859C26.951 15.971 27.4772 15.5137 27.8743 14.9528C28.2714 14.3918 28.5277 13.7436 28.6217 13.0628C28.7158 12.3819 28.6447 11.6885 28.4143 11.0409C27.5621 8.63443 26.0647 6.50845 24.086 4.89531C22.1072 3.28215 19.7233 2.24386 17.1944 1.89386C14.6655 1.54387 12.0891 1.89564 9.74665 2.91075C7.40416 3.92586 5.38574 5.56523 3.91189 7.6498C2.43803 9.73435 1.56544 12.1839 1.38946 14.7308C1.21348 17.2777 1.74087 19.824 2.91402 22.0914C4.08715 24.3588 5.86092 26.2603 8.04154 27.5878C10.2221 28.9156 12.7257 29.6184 15.2786 29.6195C16.5394 29.6229 17.7945 29.45 19.0072 29.1052C19.4526 28.9805 19.8384 28.6996 20.0941 28.3141C20.3497 27.9286 20.4583 27.4642 20.4001 27.0052Z" stroke="white" stroke-width="2.14286" stroke-linecap="round" stroke-linejoin="round"/>
</g>
<defs>
<clipPath id="clip0_1140_6792">
<rect width="30" height="30" fill="white" transform="translate(0 0.690918)"/>
</clipPath>
</defs>
</svg>
