<svg width="30" height="31" viewBox="0 0 30 31" fill="none" xmlns="http://www.w3.org/2000/svg">
<path d="M27.5 21.8409V25.5909C27.5015 25.939 27.4301 26.2836 27.2907 26.6026C27.1512 26.9215 26.9467 27.2079 26.6901 27.4432C26.4336 27.6786 26.1308 27.8577 25.801 27.9693C25.4712 28.0808 25.1218 28.1222 24.775 28.0909C20.9286 27.6729 17.2338 26.3586 13.9875 24.2534C10.9673 22.3342 8.40671 19.7736 6.48754 16.7534C4.37501 13.4924 3.06034 9.77963 2.65004 5.91589C2.6188 5.57022 2.65988 5.22184 2.77066 4.89292C2.88145 4.564 3.0595 4.26175 3.2935 4.00541C3.52749 3.74908 3.81229 3.54427 4.12978 3.40404C4.44726 3.2638 4.79046 3.19121 5.13754 3.19089H8.88754C9.49417 3.18492 10.0823 3.39973 10.5422 3.7953C11.0022 4.19087 11.3026 4.74019 11.3875 5.34089C11.5458 6.54097 11.8394 7.7193 12.2625 8.85339C12.4307 9.30079 12.4671 9.78703 12.3674 10.2545C12.2677 10.7219 12.0361 11.151 11.7 11.4909L10.1125 13.0784C11.892 16.2078 14.4831 18.7989 17.6125 20.5784L19.2 18.9909C19.5399 18.6548 19.969 18.4232 20.4364 18.3235C20.9039 18.2238 21.3901 18.2602 21.8375 18.4284C22.9716 18.8516 24.15 19.1451 25.35 19.3034C25.9572 19.389 26.5118 19.6949 26.9082 20.1628C27.3046 20.6306 27.5152 21.2279 27.5 21.8409Z" stroke="white" stroke-width="2.5" stroke-linecap="round" stroke-linejoin="round"/>
</svg>
