<svg width="31" height="31" viewBox="0 0 31 31" fill="none" xmlns="http://www.w3.org/2000/svg">
<path d="M0.5 30.6909L2.60875 22.9871C1.3075 20.7322 0.62375 18.1759 0.625 15.5547C0.62875 7.35968 7.29749 0.690948 15.4912 0.690948C19.4675 0.692198 23.2 2.24095 26.0074 5.05094C28.8137 7.86093 30.3587 11.5959 30.3574 15.5684C30.3537 23.7646 23.6849 30.4334 15.4912 30.4334C13.0037 30.4321 10.5525 29.8084 8.38123 28.6234L0.5 30.6909ZM8.74623 25.9321C10.8412 27.1759 12.8412 27.9209 15.4862 27.9221C22.2962 27.9221 27.8437 22.3797 27.8474 15.5659C27.8499 8.73843 22.3287 3.20344 15.4962 3.20094C8.68123 3.20094 3.13749 8.74343 3.13499 15.5559C3.13374 18.3372 3.94874 20.4197 5.31749 22.5984L4.06874 27.1584L8.74623 25.9321ZM22.98 19.1022C22.8875 18.9472 22.64 18.8547 22.2675 18.6684C21.8962 18.4822 20.07 17.5834 19.7287 17.4597C19.3887 17.3359 19.1412 17.2734 18.8925 17.6459C18.645 18.0172 17.9325 18.8547 17.7162 19.1022C17.5 19.3497 17.2825 19.3809 16.9112 19.1947C16.54 19.0084 15.3425 18.6172 13.9237 17.3509C12.82 16.3659 12.0737 15.1497 11.8575 14.7772C11.6412 14.4059 11.835 14.2047 12.02 14.0197C12.1875 13.8534 12.3912 13.5859 12.5775 13.3684C12.7662 13.1534 12.8275 12.9984 12.9525 12.7497C13.0762 12.5022 13.015 12.2847 12.9212 12.0984C12.8275 11.9134 12.085 10.0847 11.7762 9.34093C11.4737 8.61718 11.1675 8.71468 10.94 8.70343L10.2275 8.69093C9.97998 8.69093 9.57748 8.78343 9.23748 9.15593C8.89748 9.52843 7.93748 10.4259 7.93748 12.2547C7.93748 14.0834 9.26873 15.8497 9.45373 16.0972C9.63998 16.3447 12.0725 20.0972 15.7987 21.7059C16.685 22.0884 17.3775 22.3172 17.9162 22.4884C18.8062 22.7709 19.6162 22.7309 20.2562 22.6359C20.97 22.5297 22.4537 21.7372 22.7637 20.8697C23.0737 20.0009 23.0737 19.2572 22.98 19.1022Z" fill="white"/>
</svg>
